<svg width="40" height="40" viewBox="0 0 40 40" fill="none" xmlns="http://www.w3.org/2000/svg">
<g id="icon/20">
<g id="img">
<path id="Subtract" fill-rule="evenodd" clip-rule="evenodd" d="M5.99976 5.48962C5.99976 3.83863 7.33815 2.50024 8.98914 2.50024H24.9998L33.9998 11.5002V34.5109C33.9998 36.1619 32.6614 37.5002 31.0104 37.5002H8.98914C7.33815 37.5002 5.99976 36.1619 5.99976 34.5109V5.48962ZM13.8117 17.5002V22.5002H14.8476V20.8704H15.7454C16.8987 20.8704 17.5617 20.1867 17.5617 19.1853C17.5617 18.1978 16.9126 17.5002 15.7731 17.5002H13.8117ZM15.5797 20.0348H14.8476V18.3497H15.5797C16.1943 18.3497 16.4913 18.6881 16.4913 19.1853C16.4913 19.6895 16.1943 20.0348 15.5797 20.0348ZM18.0764 22.5002H19.8374C21.3637 22.5002 22.2822 21.561 22.2822 19.9933C22.2822 18.4395 21.3637 17.5002 19.8581 17.5002H18.0764V22.5002ZM19.796 21.6094H19.1123V18.3911H19.8029C20.749 18.3911 21.2463 18.8815 21.2463 19.9933C21.2463 21.1121 20.749 21.6094 19.796 21.6094ZM22.8935 22.5002V17.5002H26.1877V18.3566H23.9294V19.5721H25.9736V20.4284H23.9294V22.5002H22.8935Z" fill="#FF3D60"/>
<path id="Rectangle 162868" opacity="0.2" d="M24.9998 2.50024L24.9998 9.50732C24.9998 10.608 25.892 11.5002 26.9927 11.5002L33.9998 11.5002L24.9998 2.50024Z" fill="#182030"/>
</g>
</g>
</svg>
