<svg width="50" height="50" viewBox="0 0 50 50" fill="none" xmlns="http://www.w3.org/2000/svg">
<g id="profile_img">
<circle id="Ellipse 15769" cx="25" cy="25" r="25" fill="#DBE6FF"/>
<g id="img">
<mask id="mask0_4361_4473" style="mask-type:alpha" maskUnits="userSpaceOnUse" x="0" y="0" width="50" height="50">
<circle id="Ellipse 15770" cx="25" cy="25" r="25" fill="#DBE6FF"/>
</mask>
<g mask="url(#mask0_4361_4473)">
<g id="Group 1707484179">
<g id="Group 1707484177">
<path id="&#235;&#168;&#184;&#235;&#166;&#172;" d="M38.9893 23.4261C36.2805 15.3639 31.4068 7.82843 25.6045 7.84166C18.0744 7.85906 14.3996 11.3368 12.6197 18.3831C11.6014 21.508 12.2709 24.5821 9.97137 30.121C7.67188 35.6599 3.52113 35.2428 2.98922 39.3759C1.92618 47.6361 8.31621 47.0039 10.9807 47.2903L41.2248 47.2903C44.886 47.2903 41.6982 31.4883 38.9893 23.4261Z" fill="#263351"/>
<path id="layer" d="M32.2842 28.7199C36.3622 21.577 34.845 16.1732 32.7304 13.3898C29.638 10.0226 25.8813 9.39841 24.3896 9.50724C15.0103 9.923 13.0494 20.1942 14.8582 25.3504C16.3726 29.9649 19.6683 31.9879 21.1163 32.5182C24.3216 33.6923 29.7988 33.0731 32.2842 28.7199Z" fill="#FEC9C1"/>
<path id="Vector 6524" d="M20.8423 36.6721L21.2361 30.3501L27.3403 31.021L27.931 36.6721H20.8423Z" fill="#FEC9C1"/>
<ellipse id="layer_2" cx="0.645662" cy="1.11361" rx="0.645662" ry="1.11361" transform="matrix(-0.989848 0.14213 0.0633417 0.997992 22.9116 21.3525)" fill="#182030"/>
<ellipse id="layer_3" cx="0.645662" cy="1.13951" rx="0.645662" ry="1.13951" transform="matrix(-0.989848 0.14213 0.0633417 0.997992 27.832 21.3525)" fill="#182030"/>
<path id="layer_4" d="M13.6472 24.1754C13.8851 25.6356 15.2618 26.6265 16.722 26.3885L15.965 21.2279C14.5048 21.4659 13.4092 22.7151 13.6472 24.1754Z" fill="#FEC9C1"/>
<path id="layer_5" d="M35.7043 23.9223C35.4868 25.2571 34.2283 26.1629 32.8935 25.9454L33.5855 21.228C34.9203 21.4455 35.9218 22.5875 35.7043 23.9223Z" fill="#FEC9C1"/>
<path id="Vector 6248" d="M23.5692 16.2219C23.5692 16.2219 19.2359 21.6883 14.1828 22.136C12.3661 17.825 14.0905 9.25192 24.5947 9.25195C35.0991 9.25199 35.6708 17.3379 34.9442 21.7407C28.9736 20.9357 26.1461 18.5506 23.5692 16.2219Z" fill="#263351"/>
<g id="mic">
<path id="Vector 6388" d="M33.1089 23.5793C31.1945 28.1496 29.3644 29.1567 25 29.1567" stroke="white" stroke-width="1.5" stroke-linecap="round"/>
<path id="Vector 6389" d="M25 28.4067C24.5858 28.4067 24.25 28.7424 24.25 29.1567C24.25 29.5709 24.5858 29.9067 25 29.9067V28.4067ZM26.6822 29.844L27.4295 29.7811L27.3036 28.2864L26.5563 28.3493L26.6822 29.844ZM26.5563 28.3493C26.084 28.3891 25.5682 28.4067 25 28.4067V29.9067C25.5976 29.9067 26.1571 29.8883 26.6822 29.844L26.5563 28.3493Z" fill="#263351"/>
</g>
</g>
<g id="Group 1707484178">
<path id="body" fill-rule="evenodd" clip-rule="evenodd" d="M24.7664 34.8389C24.7664 34.8389 9.59408 34.8389 4.73792 46.1347C2.28165 51.8482 1.85303 56.2364 1.85303 56.2364H23.9141H25.6953H47.7563C47.7563 56.2364 47.3277 51.8482 44.8715 46.1347C40.0153 34.8389 24.843 34.8389 24.843 34.8389C24.83 34.9371 24.8173 35.0355 24.8047 35.134C24.7921 35.0355 24.7793 34.9371 24.7664 34.8389Z" fill="#00E071"/>
<path id="Rectangle 162969" d="M19.4771 35.5198C22.6764 34.7174 26.0224 34.6418 29.2541 35.3019L27.0369 54.3094H21.9181L19.4771 35.5198Z" fill="white"/>
</g>
</g>
</g>
</g>
</g>
</svg>
